<svg width="148" height="24" viewBox="0 0 148 24" fill="none" xmlns="http://www.w3.org/2000/svg">
<path fill-rule="evenodd" clip-rule="evenodd" d="M29.108 6.72382L25.2171 23.2426L46.9307 23.2426L48.3727 17.1205H33.6254L36.0117 6.91701H50.7761L49.5364 0.794922H27.8228L29.108 6.72382ZM47.7799 15.0733L49.2219 8.95124L36.5715 8.95771L38.0135 15.0798L47.7799 15.0733ZM51.2734 0.794922H65.1667L68.6773 15.6993L72.0784 0.794922H79.1395L73.8521 23.2426H63.393L63.433 23.7614L59.5246 6.91701L57.0761 17.1205L55.7289 23.2426H48.6678L52.5586 6.72382L51.2734 0.794922ZM123.345 6.72382L119.454 23.2426H142.162L143.605 17.1205H127.862L130.248 6.91701H146.008L147.45 0.794922H122.059L123.345 6.72382ZM132.25 15.0798L142.017 15.0733L143.459 8.95124L130.808 8.95771L132.25 15.0798ZM0.897461 23.2427L4.78834 6.72393L3.50309 0.795033H26.5195L27.8047 6.72393L27.7592 6.91712H11.692L9.30575 17.1206H18.5279L18.8283 15.8452H13.5863L12.1443 9.72308H27.0983L23.9139 23.2427H0.897461ZM107.258 0.794922H97.741L99.0262 6.72383L95.1353 23.2426H117.844L119.26 17.2327H103.386L107.258 0.794922ZM85.9762 6.80484H79.4988L80.8016 0.794922H95.5668L96.8521 6.72383L96.833 6.80484H92.4903L88.6185 23.2426H82.1044L85.9762 6.80484Z" fill="white"/>
</svg>
