<svg width="118" height="118" viewBox="0 0 118 118" fill="none" xmlns="http://www.w3.org/2000/svg">
<path d="M57.5731 42.6378L49.0071 66.2858H66.4319L57.8659 42.6378H57.5731ZM41.6125 86.7856H34.1447L53.9124 34.3647H61.5266L81.2943 86.7856H73.8265L68.7747 72.5822H46.7374L41.6125 86.7856Z" fill="#D80913"/>
<path d="M68.8509 81.1242C69.6386 79.8113 71.608 77.0543 73.5773 74.5598C75.6779 71.8028 77.5159 69.5709 79.8791 66.8139C81.3233 65.2384 81.0607 64.7132 76.7282 64.7132C74.1024 64.7132 72.2644 65.3697 69.9012 67.6016C66.8816 70.4899 63.862 74.0347 61.8927 76.7917C59.6608 79.8113 57.4289 83.3561 56.2473 85.588C55.4596 87.426 56.116 87.9512 59.5295 87.6886C62.2865 87.5573 63.5994 87.2947 65.0436 86.2444C70.5577 81.7807 73.9711 78.8923 80.0104 74.4285C83.6864 71.6715 87.2312 69.4396 89.7257 68.1267C91.3011 67.339 92.7453 66.9451 93.533 67.2077C94.3207 67.4703 94.1895 68.258 93.6643 68.9145C92.2201 70.7525 90.2508 73.1157 88.2815 75.3476C85.6557 78.6297 83.8177 80.9929 83.5551 83.4874C83.1613 85.8506 84.2116 88.2138 89.2005 88.2138C93.7956 88.0825 98.9158 84.8003 101.673 82.6997C104.43 80.7304 108.631 76.923 110.075 75.6101C110.732 74.9537 110.994 74.4285 110.732 74.166C110.338 73.9034 109.944 74.0347 109.156 74.8224C107.712 76.004 104.561 78.8923 102.592 80.3365C100.885 81.7807 98.7845 83.0935 96.9465 84.1438C95.7649 84.669 94.3207 85.1941 93.6643 84.669C93.0079 84.2751 93.1391 83.2248 94.0582 81.7807C94.8459 80.4678 96.1588 78.761 98.1281 76.2666C100.229 73.6408 102.854 70.6212 102.986 68.258C103.248 65.7636 101.41 64.3194 97.8655 64.3194C92.2201 64.3194 85.9183 68.3893 81.4545 71.6715C76.4656 75.2163 71.7392 79.0236 69.1135 81.3868L68.8509 81.1242Z" fill="white"/>
<path d="M82.5615 69.6154C83.8082 68.057 87.4236 65.626 89.4183 68.3687C91.9117 71.7971 91.9117 75.8489 95.9635 73.6672" stroke="white" stroke-width="0.467509"/>
<path d="M66.0426 65.0616C65.8348 64.2305 66.1049 62.6306 68.8476 62.8799C72.276 63.1916 69.7838 66.9319 66.9787 65.9967C64.1737 65.0616 62.927 59.4514 57.6286 62.8799C53.3898 65.6227 50.6679 63.815 49.8367 62.5683C47.9667 61.1138 43.4786 59.5761 40.4866 65.0616C37.4945 70.5471 32.7986 66.7239 30.8247 64.1266" stroke="white" stroke-width="0.779181"/>
<circle cx="59.1583" cy="58.9127" r="58.4074" stroke="white" stroke-width="0.32714"/>
<circle cx="58.1556" cy="58.9125" r="42.7884" stroke="white" stroke-width="0.32714"/>
<path d="M59.1111 99.7984L58.7743 99.739L59.778 95.9808L70.3927 95.6215L70.4097 95.9954L69.8942 96.0128C69.3146 96.0325 68.9087 96.2351 68.6764 96.6208C68.5447 96.8411 68.4966 97.342 68.5321 98.1235L68.934 106.965C68.9729 107.821 69.0916 108.353 69.2901 108.562C69.5664 108.85 69.964 108.985 70.483 108.967L70.9985 108.95L71.0155 109.323L64.8084 109.533L64.7914 109.16C65.5196 109.142 66.0287 109.057 66.3189 108.906C66.6022 108.754 66.7929 108.569 66.891 108.35C66.989 108.131 67.0195 107.613 66.9824 106.798L66.5911 98.1891C66.5657 97.63 66.4944 97.2479 66.377 97.0427C66.2897 96.904 66.1603 96.8038 65.9887 96.7421C65.8172 96.6804 65.29 96.6646 64.4071 96.6944L63.4063 96.7283C62.3549 96.7639 61.6205 96.8663 61.2029 97.0356C60.7854 97.205 60.4102 97.4909 60.0775 97.8935C59.7452 98.3028 59.423 98.9378 59.1111 99.7984Z" fill="white"/>
<path d="M57.7394 108.769L57.8372 103.348L54.8242 103.258C54.0423 103.235 53.5178 103.338 53.2507 103.566C52.8946 103.866 52.6892 104.406 52.6347 105.187L52.2606 105.176L52.3467 100.402L52.7208 100.413C52.8031 101.084 52.8898 101.515 52.9807 101.706C53.0978 101.946 53.2933 102.137 53.5672 102.28C53.8411 102.423 54.2646 102.503 54.8375 102.52L57.8505 102.609L57.932 98.0887C57.9429 97.4819 57.9227 97.1103 57.8712 96.9739C57.8196 96.8442 57.7271 96.7369 57.5937 96.652C57.4602 96.5738 57.2048 96.5291 56.8273 96.5179L54.5019 96.4491C53.7267 96.4261 53.1629 96.4633 52.8105 96.5608C52.458 96.6583 52.1172 96.8607 51.7879 97.168C51.3625 97.5737 50.9231 98.1914 50.4698 99.0212L50.0653 99.0092L51.3103 95.6057L61.8759 95.9187L61.8692 96.2929L61.3839 96.2785C61.0603 96.269 60.7522 96.3374 60.4596 96.4839C60.242 96.5854 60.0941 96.7429 60.0161 96.9565C59.9313 97.1698 59.8829 97.6102 59.8709 98.2777L59.7102 107.188C59.6945 108.057 59.7725 108.596 59.9441 108.803C60.1819 109.08 60.5839 109.227 61.1501 109.244L61.6354 109.258L61.6286 109.633L51.063 109.32L50.9655 106.311L51.3598 106.323C51.4884 107.049 51.6378 107.549 51.8082 107.824C51.9719 108.098 52.2209 108.312 52.5554 108.463C52.8232 108.572 53.2975 108.637 53.9783 108.657L57.7394 108.769Z" fill="white"/>
<path d="M69.1974 100.291L74.218 98.5606L74.3657 96.2203C74.4023 95.6443 74.3762 95.2325 74.2872 94.985C74.2165 94.7883 74.0614 94.6457 73.8217 94.5571C73.578 94.477 73.1358 94.5225 72.495 94.6934L72.3685 94.3412L76.4519 92.9338L76.5785 93.286C76.0708 93.568 75.7646 93.8126 75.6599 94.0198C75.4443 94.4365 75.3064 95.1794 75.2464 96.2485L74.5026 108.444L74.1679 108.559L65.7953 99.3774C65.1218 98.6396 64.5916 98.1911 64.2048 98.032C63.8139 97.8814 63.3482 97.8815 62.8077 98.0321L62.6811 97.6799L67.7973 95.9166L67.9239 96.2688C67.4166 96.4722 67.1 96.6776 66.9739 96.8851C66.8415 97.0948 66.8129 97.3043 66.8881 97.5137C66.9885 97.793 67.2745 98.1901 67.7462 98.705L69.1974 100.291ZM69.7183 100.903L73.7925 105.361L74.1747 99.3672L69.7183 100.903Z" fill="white"/>
<path d="M65.1349 15.4861L70.3323 16.0646L70.1633 17.5826L64.9659 17.0041L65.1349 15.4861Z" fill="white"/>
<path d="M45.5213 114.408L50.6127 115.602L50.2639 117.089L45.1726 115.895L45.5213 114.408Z" fill="white"/>
<path d="M81.4144 23.0922L76.5422 20.9799L74.8462 22.6038C74.4286 23.0033 74.1687 23.3242 74.0663 23.5665C73.985 23.7591 74.0026 23.9688 74.119 24.1957C74.2443 24.419 74.6009 24.6839 75.1888 24.9902L75.0432 25.335L71.0805 23.617L71.2261 23.2722C71.7914 23.407 72.1828 23.4334 72.4004 23.3514C72.8419 23.19 73.4473 22.7359 74.2165 21.989L83.0352 13.5092L83.36 13.65L83.3012 26.06C83.2971 27.0577 83.3835 27.7457 83.5605 28.1237C83.7464 28.4983 84.0895 28.8124 84.5899 29.0661L84.4443 29.4109L79.4793 27.2583L79.6249 26.9135C80.1365 27.1059 80.5091 27.1683 80.7427 27.1005C80.9825 27.0354 81.1456 26.9004 81.2322 26.6954C81.3476 26.422 81.4062 25.9366 81.408 25.2392L81.4144 23.0922ZM81.4458 22.29L81.4679 16.2583L77.1211 20.415L81.4458 22.29Z" fill="white"/>
<path d="M89.9002 31.2275L90.1235 31.4867L86.9712 33.7639L78.5246 27.3252L78.7477 27.0247L79.1579 27.3374C79.6192 27.689 80.0615 27.7888 80.4851 27.6369C80.7264 27.5495 81.0802 27.1918 81.5465 26.5638L86.823 19.4579C87.3336 18.7704 87.5781 18.2827 87.5566 17.995C87.5243 17.5974 87.3017 17.2411 86.8888 16.9264L86.4785 16.6136L86.7017 16.3131L91.6409 20.0783L91.4178 20.3787C90.8426 19.9318 90.3948 19.6753 90.0744 19.6091C89.7594 19.547 89.4947 19.5698 89.2802 19.6777C89.0658 19.7855 88.7153 20.167 88.2289 20.8221L83.091 27.7411C82.7574 28.1905 82.5711 28.5318 82.5323 28.7651C82.5122 28.9278 82.5491 29.0873 82.643 29.2437C82.7369 29.4 83.1351 29.746 83.8376 30.2815L84.634 30.8886C85.4706 31.5263 86.1041 31.9117 86.5344 32.0447C86.9648 32.1778 87.4359 32.1936 87.948 32.0921C88.4641 31.9853 89.1148 31.6971 89.9002 31.2275Z" fill="white"/>
<path d="M96.158 37.2345L96.3494 37.518L92.952 39.4102L85.3179 32.0263L85.5747 31.7541L85.9455 32.1127C86.3623 32.5159 86.79 32.6668 87.2284 32.5656C87.4783 32.5071 87.8715 32.1933 88.4083 31.6242L94.4809 25.1855C95.0685 24.5624 95.3685 24.1068 95.3808 23.8185C95.3954 23.4198 95.216 23.04 94.8428 22.679L94.472 22.3204L94.7288 22.0481L99.1929 26.3659L98.9361 26.6382C98.4173 26.127 98.0027 25.8197 97.6922 25.7165C97.3866 25.6179 97.121 25.6096 96.8954 25.6916C96.6698 25.7735 96.2771 26.1113 95.7172 26.7049L89.8042 32.9744C89.4202 33.3816 89.1952 33.6987 89.1294 33.9258C89.0904 34.0851 89.1083 34.2478 89.1832 34.4141C89.2581 34.5804 89.6131 34.9706 90.248 35.5847L90.9678 36.2809C91.724 37.0123 92.3079 37.4692 92.7197 37.6518C93.1315 37.8343 93.5976 37.9052 94.118 37.8644C94.643 37.8188 95.323 37.6088 96.158 37.2345Z" fill="white"/>
<path d="M22.302 81.969L22.1206 81.679L25.5804 79.9045L32.9545 87.5481L32.6885 87.8114L32.3304 87.4402C31.9277 87.0228 31.5056 86.8572 31.064 86.9433C30.8123 86.9932 30.4086 87.2933 29.8527 87.8437L23.5633 94.0709C22.9547 94.6734 22.6393 95.1186 22.617 95.4063C22.5888 95.8043 22.7549 96.1902 23.1154 96.5639L23.4736 96.9351L23.2076 97.1984L18.8956 92.7287L19.1615 92.4654C19.6624 92.9943 20.0661 93.3157 20.3728 93.4296C20.6747 93.5386 20.9398 93.5561 21.1681 93.4819C21.3963 93.4077 21.8004 93.0836 22.3802 92.5095L28.5043 86.446C28.902 86.0522 29.1377 85.743 29.2114 85.5182C29.2558 85.3604 29.2435 85.197 29.1743 85.0283C29.1052 84.8595 28.764 84.4572 28.1507 83.8215L27.4554 83.1008C26.725 82.3437 26.1572 81.8668 25.752 81.6702C25.3469 81.4736 24.8836 81.3867 24.3622 81.4095C23.836 81.4371 23.1493 81.6236 22.302 81.969Z" fill="white"/>
<path d="M104.962 38.218L105.291 38.0392L107.564 42.3297L107.235 42.5085L106.993 42.0526C106.741 41.5759 106.348 41.3174 105.816 41.277C105.566 41.2517 105.106 41.4211 104.437 41.7851L99.5492 44.4428C98.3407 45.0999 97.337 45.4884 96.5382 45.6081C95.7484 45.7305 94.9258 45.5677 94.0703 45.1195C93.2239 44.674 92.4787 43.8435 91.8348 42.6279C91.134 41.305 90.8302 40.1768 90.9234 39.2435C91.0165 38.3102 91.3724 37.4911 91.9911 36.7863C92.4173 36.3089 93.3561 35.6756 94.8075 34.8863L99.5172 32.3253C100.258 31.9226 100.688 31.5541 100.809 31.2199C100.933 30.8917 100.873 30.4982 100.63 30.0393L100.388 29.5835L100.717 29.4047L103.492 34.6426L103.163 34.8214L102.917 34.3566C102.652 33.8561 102.305 33.5839 101.878 33.5401C101.585 33.5071 101.102 33.6742 100.426 34.0415L95.1746 36.8973C94.7066 37.1518 94.1925 37.485 93.6324 37.897C93.0755 38.315 92.6882 38.729 92.4705 39.1391C92.2528 39.5491 92.1464 40.0253 92.1513 40.5676C92.1593 41.1158 92.3275 41.6998 92.6558 42.3196C93.0756 43.1121 93.6231 43.7278 94.2981 44.1666C94.9731 44.6055 95.6372 44.7932 96.2903 44.7297C96.9525 44.6689 97.9234 44.2906 99.2031 43.5948L104.082 40.942C104.834 40.5328 105.261 40.1933 105.362 39.9234C105.499 39.5492 105.447 39.1327 105.204 38.6739L104.962 38.218Z" fill="white"/>
<path d="M95.8409 55.5821L94.805 52.07L99.6292 45.7584C99.519 45.4324 99.4334 45.1659 99.3723 44.959C99.3475 44.8749 99.3208 44.7843 99.2922 44.6873C99.27 44.5883 99.2469 44.4861 99.2228 44.3807L95.4085 45.5357C94.5824 45.7858 94.096 46.0317 93.9494 46.2734C93.7379 46.6052 93.7047 47.0168 93.8496 47.5084L94.0013 48.0226L93.6431 48.1311L91.9805 42.4943L92.3387 42.3858L92.4846 42.8806C92.6487 43.4369 92.9467 43.7799 93.3787 43.9098C93.6189 43.985 94.1133 43.9093 94.8619 43.6826L103.342 41.1147C104.169 40.8646 104.655 40.6187 104.802 40.377C105.011 40.0387 105.043 39.6206 104.896 39.1226L104.75 38.6278L105.108 38.5193L106.522 43.312C106.934 44.7091 107.134 45.7687 107.122 46.491C107.118 47.2178 106.91 47.8938 106.497 48.5192C106.092 49.149 105.512 49.5783 104.757 49.8069C103.95 50.0512 103.172 49.9981 102.421 49.6475C101.673 49.3034 101.013 48.6154 100.442 47.5837L97.4772 51.4405C96.7955 52.3233 96.3785 53.0308 96.2261 53.5631C96.0738 54.0954 96.0648 54.7322 96.1991 55.4736L95.8409 55.5821ZM99.8327 44.196C99.869 44.3189 99.8972 44.4266 99.9175 44.5191C99.9442 44.6097 99.9661 44.684 99.9833 44.7423C100.353 45.997 100.903 46.8593 101.632 47.3289C102.363 47.8051 103.148 47.9162 103.987 47.6621C104.807 47.4139 105.395 46.9539 105.753 46.2821C106.118 45.6148 106.176 44.8575 105.926 44.0102C105.815 43.6351 105.604 43.1459 105.293 42.5427L99.8327 44.196Z" fill="white"/>
<path d="M107.956 51.8235L102.767 53.3947L103.62 56.2859C103.841 57.0361 104.102 57.5032 104.402 57.687C104.798 57.9335 105.376 57.9627 106.137 57.7749L106.242 58.1338L101.673 59.5174L101.567 59.1585C102.179 58.8745 102.562 58.6598 102.716 58.5145C102.908 58.3297 103.029 58.0852 103.08 57.7809C103.131 57.4766 103.075 57.0496 102.913 56.4998L102.06 53.6087L97.733 54.919C97.1521 55.0949 96.8048 55.2283 96.691 55.3191C96.5836 55.408 96.5103 55.5288 96.471 55.6816C96.4381 55.8325 96.4751 56.089 96.582 56.4512L97.2402 58.6826C97.4596 59.4264 97.6705 59.9509 97.873 60.2559C98.0754 60.561 98.3741 60.8228 98.769 61.0414C99.2875 61.3213 100.012 61.5493 100.943 61.7254L101.057 62.1135L97.4309 61.975L94.4404 51.8366L94.7986 51.7282L94.936 52.1939C95.0276 52.5043 95.1886 52.7761 95.4191 53.0093C95.5834 53.185 95.7793 53.2772 96.0068 53.2858C96.2362 53.3008 96.6704 53.2117 97.3094 53.0182L105.838 50.4356C106.671 50.1835 107.159 49.9441 107.303 49.7173C107.493 49.4063 107.507 48.9791 107.347 48.4358L107.21 47.9701L107.568 47.8616L110.558 58.0001L107.726 59.0162L107.614 58.6378C108.265 58.2929 108.694 57.9973 108.903 57.7509C109.113 57.5111 109.239 57.2089 109.279 56.8445C109.299 56.5565 109.213 56.0858 109.021 55.4326L107.956 51.8235Z" fill="white"/>
<path d="M94.7532 82.2926L95.9953 77.1295L94.1114 75.7058C93.6479 75.3551 93.2884 75.1483 93.0331 75.0852C92.8301 75.0351 92.6272 75.0857 92.4244 75.2371C92.2265 75.3966 92.0273 75.7919 91.8269 76.4231L91.4636 76.3334L92.4738 72.1341L92.8372 72.2238C92.8013 72.8053 92.8422 73.1974 92.9599 73.4002C93.1937 73.8121 93.7429 74.3402 94.6075 74.9844L104.438 82.3818L104.355 82.726L92.1617 84.6324C91.1814 84.7862 90.5208 84.9808 90.1798 85.2161C89.8438 85.4596 89.594 85.8494 89.4304 86.3855L89.067 86.2957L90.3327 81.0343L90.6961 81.124C90.5945 81.6615 90.5969 82.0407 90.7033 82.2615C90.8082 82.4888 90.9686 82.6291 91.1847 82.6825C91.4727 82.7536 91.9593 82.7348 92.6443 82.6262L94.7532 82.2926ZM95.5461 82.1967L101.472 81.2637L96.6486 77.6138L95.5461 82.1967Z" fill="white"/>
<path d="M108.218 64.2701L107.883 67.9774L96.8872 75.3809L104.763 76.1098C105.603 76.1875 106.135 76.142 106.36 75.9732C106.665 75.7508 106.841 75.3709 106.889 74.8337L106.932 74.3602L107.305 74.3947L106.876 79.1497L106.503 79.1152L106.547 78.6316C106.599 78.054 106.461 77.6282 106.134 77.3541C105.933 77.1865 105.449 77.0672 104.684 76.9964L93.1712 75.9309L93.2039 75.5682L105.015 67.5798L96.6045 66.8014C95.7651 66.7237 95.2332 66.7659 95.0087 66.928C94.7037 67.1571 94.5272 67.5369 94.4794 68.0675L94.4358 68.5511L94.0631 68.5166L94.4919 63.7616L94.8645 63.7961L94.8218 64.2695C94.7691 64.8538 94.9065 65.2831 95.2339 65.5571C95.4354 65.7248 95.9189 65.844 96.6844 65.9149L106.182 66.794C106.681 66.4406 107.014 66.1666 107.181 65.9721C107.346 65.7843 107.511 65.4982 107.674 65.1137C107.752 64.9246 107.809 64.6318 107.845 64.2356L108.218 64.2701Z" fill="white"/>
<path d="M96.1536 96.5511L93.2523 95.1579L93.4311 94.8177C93.9641 95.021 94.3673 95.1236 94.6405 95.1255C95.082 95.1262 95.4644 95.0146 95.7878 94.7906C96.114 94.5759 96.4089 94.2178 96.6724 93.7164L97.5713 92.0063L88.3491 87.0299C87.6073 86.6296 87.1021 86.4604 86.8334 86.5223C86.4649 86.6146 86.1567 86.8965 85.9089 87.3681L85.6877 87.7889L85.3583 87.6111L88.0645 82.4629L88.3939 82.6406L88.168 83.0704C87.8981 83.5837 87.861 84.0311 88.0567 84.4125C88.1775 84.6463 88.5762 84.9457 89.2528 85.3108L98.475 90.2873L99.2421 88.8278C99.5402 88.2608 99.7104 87.8355 99.7529 87.5519C99.8033 87.1806 99.7263 86.7981 99.5219 86.4044C99.3175 86.0106 98.9533 85.6455 98.4293 85.3091L98.6082 84.9689L101.364 86.6396L96.1536 96.5511Z" fill="white"/>
<path d="M89.7086 99.9632L89.9785 100.223L86.6605 103.767L86.3906 103.508L86.7432 103.131C87.1118 102.737 87.2323 102.278 87.1047 101.753C87.0508 101.505 86.7491 101.117 86.1996 100.589L82.1882 96.7343C81.1963 95.7811 80.5201 94.9396 80.1596 94.2098C79.7994 93.4896 79.6965 92.6473 79.8511 91.683C80.0059 90.7283 80.5533 89.7488 81.4934 88.7445C82.5165 87.6516 83.4802 87.0019 84.3845 86.7955C85.2889 86.5891 86.1677 86.6715 87.021 87.0426C87.6012 87.3009 88.487 88.0024 89.6782 89.1472L93.5438 92.8617C94.1516 93.4458 94.6309 93.7427 94.9818 93.7527C95.3281 93.7675 95.6787 93.5854 96.0336 93.2063L96.3861 92.8297L96.656 93.089L92.6052 97.4164L92.3354 97.1571L92.6948 96.7731C93.0819 96.3595 93.2296 95.9403 93.1378 95.5155C93.0779 95.2242 92.7709 94.8122 92.2166 94.2796L87.9061 90.1375C87.522 89.7684 87.0497 89.38 86.4892 88.9723C85.9241 88.5696 85.4155 88.3286 84.9632 88.2493C84.5109 88.1701 84.0313 88.2188 83.5242 88.3955C83.0124 88.577 82.517 88.9238 82.0377 89.4358C81.4248 90.0906 81.0174 90.8119 80.8155 91.5998C80.6137 92.3878 80.644 93.0855 80.9065 93.6931C81.1692 94.3103 81.8257 95.1235 82.876 96.1327L86.8801 99.9804C87.4976 100.574 87.9487 100.876 88.2333 100.888C88.627 100.902 89.0012 100.719 89.3561 100.34L89.7086 99.9632Z" fill="white"/>
<path d="M70.1286 95.6154L73.2539 93.7074L80.4946 96.7999C80.7812 96.6091 81.0166 96.4575 81.2008 96.3451C81.2756 96.2994 81.3562 96.2502 81.4425 96.1975C81.5323 96.1506 81.625 96.1019 81.7205 96.0515L79.6834 92.6261C79.2422 91.8843 78.8875 91.4727 78.6195 91.3914C78.2492 91.2699 77.8453 91.3427 77.4078 91.6097L76.9503 91.8891L76.759 91.5674L81.7749 88.5051L81.9662 88.8268L81.5259 89.0956C81.0309 89.3978 80.7735 89.7762 80.7536 90.2307C80.7396 90.4842 80.9325 90.9471 81.3323 91.6194L85.8616 99.2352C86.3028 99.977 86.6574 100.389 86.9254 100.47C87.3015 100.588 87.7112 100.512 88.1544 100.241L88.5947 99.9722L88.786 100.294L84.5211 102.898C83.2779 103.657 82.3077 104.123 81.6103 104.296C80.9106 104.478 80.21 104.447 79.5083 104.204C78.8044 103.97 78.2508 103.514 77.8475 102.836C77.4166 102.112 77.2786 101.339 77.4334 100.517C77.5825 99.6996 78.0837 98.8802 78.9369 98.059L74.5083 96.153C73.4939 95.7137 72.7123 95.4877 72.1635 95.4752C71.6147 95.4626 71.0002 95.6166 70.3199 95.9371L70.1286 95.6154ZM82.0462 96.5992C81.9369 96.6659 81.8402 96.721 81.7562 96.7644C81.6756 96.8136 81.6094 96.854 81.5576 96.8857C80.441 97.5673 79.7455 98.3238 79.471 99.155C79.1907 99.9897 79.2747 100.784 79.7228 101.537C80.1605 102.273 80.7458 102.73 81.4785 102.907C82.209 103.093 82.9512 102.955 83.7051 102.495C84.039 102.291 84.458 101.96 84.9623 101.502L82.0462 96.5992Z" fill="white"/>
<path d="M55.7075 16.9029L56.0489 16.8829L55.9403 20.7713L45.6954 23.5722L45.5925 23.2124L46.0901 23.0763C46.6495 22.9234 46.9977 22.6325 47.1346 22.2036C47.2118 21.9588 47.143 21.4603 46.928 20.7082L44.4951 12.1985C44.2597 11.375 44.0213 10.8845 43.7798 10.7268C43.4446 10.5109 43.0266 10.4714 42.5257 10.6083L42.0281 10.7443L41.9252 10.3845L47.916 8.74667L48.0189 9.10651C47.3145 9.29208 46.8387 9.49207 46.5914 9.70648C46.3507 9.9191 46.2079 10.1434 46.1631 10.3793C46.1184 10.6152 46.2081 11.1255 46.4324 11.91L48.8013 20.1961C48.9552 20.7342 49.1128 21.0895 49.2744 21.2621C49.3914 21.3769 49.5404 21.4445 49.7216 21.4649C49.9027 21.4852 50.4194 21.379 51.2715 21.146L52.2374 20.8819C53.2521 20.6045 53.9431 20.3352 54.3103 20.074C54.6774 19.8129 54.9764 19.448 55.2071 18.9795C55.436 18.5045 55.6028 17.8123 55.7075 16.9029Z" fill="white"/>
<path d="M54.7693 8.38298L55.3395 13.7746L58.3405 13.4924C59.1193 13.4191 59.6272 13.2528 59.8643 12.9935C60.1807 12.6522 60.318 12.0907 60.276 11.309L60.6486 11.274L61.1507 16.0218L60.7781 16.0569C60.6139 15.4018 60.4749 14.9848 60.361 14.8059C60.2154 14.5825 59.9978 14.4168 59.7084 14.3085C59.4189 14.2003 58.9889 14.173 58.4182 14.2267L55.4171 14.5089L55.8926 19.0053C55.9564 19.6088 56.0223 19.9751 56.0902 20.1042C56.1574 20.2265 56.2624 20.3216 56.4051 20.3895C56.5472 20.4506 56.8062 20.4635 57.1822 20.4282L59.4985 20.2103C60.2705 20.1377 60.8255 20.0314 61.1632 19.8912C61.501 19.7511 61.8144 19.5083 62.1033 19.1628C62.4756 18.7079 62.8356 18.0408 63.1833 17.1615L63.5862 17.1236L62.7696 20.6545L52.2458 21.6442L52.2064 21.272L52.6898 21.2265C53.012 21.1962 53.3094 21.0904 53.5818 20.909C53.7852 20.7815 53.9126 20.607 53.9637 20.3854C54.0216 20.1633 54.0154 19.7202 53.9452 19.0563L53.0081 10.1944C52.9166 9.3293 52.773 8.80438 52.5771 8.61962C52.3071 8.37411 51.8901 8.27787 51.3261 8.33091L50.8427 8.37637L50.8033 8.00419L61.3272 7.01448L61.7942 9.9878L61.4014 10.0247C61.1845 9.32045 60.9746 8.8424 60.7717 8.59058C60.5755 8.33812 60.3021 8.15727 59.9515 8.04801C59.6723 7.97267 59.1937 7.96689 58.5156 8.03066L54.7693 8.38298Z" fill="white"/>
<path d="M44.3815 19.3924L39.4735 21.4203L39.4663 23.7653C39.4643 24.3425 39.515 24.7519 39.6187 24.9937C39.701 25.1858 39.8644 25.3189 40.1089 25.393C40.357 25.4583 40.7957 25.3864 41.4251 25.1774L41.5725 25.5214L37.5807 27.1708L37.4333 26.8269C37.9232 26.515 38.2142 26.2525 38.3062 26.0394C38.4965 25.6105 38.5896 24.8607 38.5855 23.79L38.5975 11.5719L38.9247 11.4367L47.8322 20.1005C48.5488 20.7967 49.1048 21.2126 49.5004 21.3482C49.8996 21.4751 50.3645 21.4472 50.8951 21.2644L51.0425 21.6084L46.0411 23.675L45.8936 23.331C46.3878 23.0976 46.6916 22.8736 46.805 22.659C46.9247 22.4417 46.9406 22.2308 46.853 22.0263C46.7361 21.7536 46.4268 21.3743 45.9251 20.8885L44.3815 19.3924ZM43.8248 18.8125L39.4909 14.6062L39.4685 20.6126L43.8248 18.8125Z" fill="white"/>
<path d="M36.7584 95.642L41.6134 97.7935L43.3224 96.1833C43.7432 95.7871 44.0058 95.4683 44.11 95.2268C44.1929 95.0349 44.177 94.8251 44.0624 94.5973C43.9389 94.3729 43.5845 94.1052 42.999 93.7941L43.1474 93.4505L47.0962 95.2004L46.9478 95.544C46.3837 95.4046 45.9924 95.3751 45.7741 95.4554C45.3314 95.6132 44.7224 96.0624 43.9472 96.8031L35.0606 105.212L34.7369 105.068L34.8955 92.6592C34.9077 91.6615 34.8268 90.9729 34.6528 90.5934C34.47 90.2174 34.1294 89.9005 33.6311 89.6428L33.7794 89.2992L38.727 91.4917L38.5786 91.8352C38.0685 91.6387 37.6964 91.5734 37.4623 91.6393C37.222 91.7024 37.0578 91.8362 36.9696 92.0405C36.8519 92.3129 36.7894 92.7978 36.7821 93.4952L36.7584 95.642ZM36.7206 96.4439L36.6499 102.475L41.03 98.3536L36.7206 96.4439Z" fill="white"/>
<path d="M27.2451 87.6509L27.0067 87.4056L30.0169 84.9436L38.834 90.8648L38.6293 91.1781L38.201 90.8905C37.7196 90.5672 37.272 90.4941 36.8583 90.6711C36.6227 90.7728 36.291 91.1511 35.8631 91.8059L31.0217 99.215C30.5532 99.932 30.3384 100.433 30.3771 100.719C30.4331 101.114 30.6766 101.457 31.1077 101.746L31.536 102.034L31.3312 102.347L26.1753 98.8844L26.38 98.5711C26.981 98.9828 27.4433 99.2121 27.7671 99.2589C28.0853 99.302 28.3482 99.2634 28.5558 99.1429C28.7634 99.0224 29.0904 98.6206 29.5367 97.9375L34.2508 90.7231C34.557 90.2546 34.7225 89.9028 34.7472 89.6676C34.7575 89.504 34.7111 89.3469 34.6081 89.1965C34.505 89.046 34.0868 88.7246 33.3534 88.2321L32.5221 87.6738C31.6488 87.0873 30.9934 86.7406 30.5558 86.6336C30.1183 86.5265 29.647 86.539 29.142 86.6709C28.6332 86.8085 28.0009 87.1352 27.2451 87.6509Z" fill="white"/>
<path d="M12.3434 82.062L12.0259 82.2602L9.50025 78.1135L9.81774 77.9154L10.0861 78.3559C10.3667 78.8167 10.7741 79.0513 11.3082 79.0597C11.5592 79.0699 12.0079 78.8733 12.6543 78.4699L17.3738 75.5242C18.5408 74.7958 19.5194 74.3479 20.3096 74.1806C21.0906 74.0111 21.9215 74.1244 22.8023 74.5205C23.6739 74.9145 24.4675 75.6989 25.1831 76.8738C25.9618 78.1523 26.3326 79.2602 26.2956 80.1974C26.2585 81.1347 25.9523 81.9736 25.377 82.7142C24.9801 83.2163 24.0809 83.9047 22.6794 84.7795L18.1315 87.618C17.4165 88.0643 17.0088 88.4579 16.9084 88.7987C16.8046 89.1338 16.8877 89.523 17.1578 89.9665L17.4262 90.4071L17.1087 90.6053L14.0253 85.5429L14.3428 85.3447L14.6164 85.794C14.9111 86.2777 15.2731 86.5287 15.7026 86.5468C15.9962 86.5622 16.4691 86.3664 17.1213 85.9594L22.1925 82.7941C22.6445 82.512 23.1376 82.1486 23.672 81.7038C24.2029 81.2532 24.5647 80.8167 24.7575 80.3943C24.9503 79.972 25.028 79.4903 24.9906 78.9493C24.9497 78.4025 24.7468 77.8296 24.382 77.2307C23.9155 76.4647 23.3321 75.8829 22.632 75.4853C21.9319 75.0877 21.2578 74.9401 20.6096 75.0426C19.9523 75.1429 19.0057 75.5787 17.7701 76.3499L13.0592 79.2902C12.3327 79.7437 11.9271 80.1081 11.8422 80.3837C11.7273 80.7654 11.8049 81.178 12.075 81.6214L12.3434 82.062Z" fill="white"/>
<path d="M21.4047 64.6708L22.6491 68.1145L18.2116 74.7038C18.3412 75.0226 18.4426 75.2834 18.516 75.4864C18.5457 75.5688 18.5778 75.6576 18.6122 75.7527C18.6403 75.8502 18.6695 75.9509 18.6998 76.0547L22.4381 74.6733C23.2477 74.3741 23.7185 74.0995 23.8504 73.8495C24.0416 73.5056 24.0502 73.0927 23.876 72.6107L23.6938 72.1065L24.0449 71.9768L26.0422 77.5039L25.6911 77.6336L25.5158 77.1484C25.3187 76.603 25.0006 76.2784 24.5616 76.1747C24.3174 76.1139 23.8284 76.2191 23.0947 76.4903L14.7832 79.5616C13.9735 79.8607 13.5028 80.1353 13.3708 80.3854C13.1819 80.7356 13.1757 81.1548 13.3521 81.6431L13.5275 82.1283L13.1764 82.258L11.4782 77.5586C10.9832 76.1887 10.72 75.143 10.6886 74.4213C10.6486 73.6956 10.8161 73.0083 11.1911 72.3593C11.5574 71.7064 12.1106 71.2432 12.8506 70.9697C13.6413 70.6775 14.4216 70.6839 15.1914 70.9889C15.959 71.2876 16.6589 71.9348 17.2912 72.9304L20.0195 68.9029C20.647 67.9809 21.0209 67.2497 21.1411 66.7092C21.2613 66.1688 21.2321 65.5326 21.0536 64.8006L21.4047 64.6708ZM18.1021 76.2755C18.0585 76.155 18.0239 76.0492 17.9981 75.9581C17.966 75.8693 17.9397 75.7964 17.919 75.7393C17.4744 74.509 16.8742 73.6812 16.1182 73.256C15.36 72.8245 14.5698 72.7607 13.7475 73.0645C12.9441 73.3614 12.3843 73.8558 12.0679 74.5478C11.743 75.2358 11.7306 75.9952 12.0308 76.826C12.1637 77.1939 12.4037 77.6695 12.7508 78.2529L18.1021 76.2755Z" fill="white"/>
<path d="M9.53629 69.1479L14.6219 67.2687L13.5974 64.4338C13.3316 63.6981 13.0433 63.2475 12.7325 63.082C12.3224 62.8597 11.7436 62.8652 10.9961 63.0982L10.8689 62.7463L15.3472 61.0914L15.4744 61.4434C14.8803 61.7636 14.5107 62.0008 14.3657 62.155C14.1856 62.351 14.0792 62.6024 14.0467 62.9091C14.0141 63.2159 14.0953 63.6388 14.2901 64.1779L15.3145 67.0127L19.5556 65.4456C20.1249 65.2352 20.4636 65.0813 20.5718 64.9838C20.6737 64.8886 20.7396 64.7636 20.7697 64.6087C20.7934 64.4562 20.7411 64.2023 20.6128 63.8472L19.8221 61.6592C19.5586 60.9299 19.3166 60.419 19.0962 60.1266C18.8758 59.8342 18.562 59.5908 18.1547 59.3962C17.6204 59.1479 16.8835 58.9637 15.9439 58.8437L15.8063 58.4632L19.4345 58.3841L23.0269 68.3252L22.6758 68.4549L22.5108 67.9983C22.4008 67.6939 22.2238 67.4322 21.9798 67.2133C21.8052 67.0477 21.6041 66.9675 21.3765 66.9725C21.1466 66.9712 20.7185 67.0862 20.0923 67.3176L11.7334 70.4064C10.9174 70.708 10.4443 70.9762 10.3142 71.2112C10.1437 71.533 10.1547 71.9603 10.3472 72.493L10.5122 72.9497L10.1611 73.0794L6.56873 63.1383L9.33511 61.9543L9.46918 62.3253C8.8405 62.7086 8.42944 63.0294 8.23601 63.2878C8.04029 63.5399 7.93331 63.849 7.91507 64.2152C7.91186 64.5039 8.026 64.9685 8.25747 65.6091L9.53629 69.1479Z" fill="white"/>
<path d="M20.8917 37.9435L19.9611 43.1717L21.9269 44.4801C22.4106 44.8023 22.7818 44.9873 23.0404 45.0349C23.246 45.0728 23.4455 45.0101 23.639 44.8469C23.8269 44.6758 24.002 44.2692 24.1643 43.6272L24.5323 43.695L23.7755 47.9473L23.4074 47.8795C23.4084 47.2968 23.344 46.9079 23.2144 46.7126C22.9564 46.3153 22.3765 45.8211 21.4749 45.2299L11.2188 38.4346L11.2808 38.086L23.3384 35.4527C24.3077 35.2404 24.9555 35.0066 25.2817 34.7513C25.6025 34.4881 25.8286 34.0841 25.9598 33.5391L26.3279 33.6069L25.3796 38.9348L25.0115 38.867C25.0807 38.3243 25.0556 37.946 24.9361 37.732C24.8179 37.5114 24.6493 37.3809 24.4305 37.3406C24.1387 37.2868 23.6541 37.3347 22.9768 37.4842L20.8917 37.9435ZM20.1059 38.0867L14.2469 39.373L19.2799 42.7274L20.1059 38.0867Z" fill="white"/>
<path d="M9.01861 56.7409L9.13019 53.0202L19.6632 44.9714L11.7573 44.7155C10.9149 44.6882 10.3863 44.7656 10.1717 44.9476C9.88118 45.1878 9.72782 45.5775 9.71165 46.1167L9.6974 46.5919L9.32334 46.5798L9.46645 41.8077L9.84051 41.8198L9.82596 42.3051C9.80857 42.8847 9.97148 43.3016 10.3147 43.5556C10.5259 43.7108 11.0157 43.8009 11.784 43.8258L23.3395 44.1998L23.3286 44.5638L12.0176 53.2453L20.4593 53.5185C21.3018 53.5458 21.8302 53.4718 22.0446 53.2966C22.3354 53.0496 22.4887 52.6599 22.5047 52.1274L22.5193 51.6421L22.8933 51.6542L22.7502 56.4263L22.3762 56.4142L22.3904 55.939C22.408 55.3526 22.2452 54.9324 21.902 54.6784C21.6908 54.5232 21.201 54.4331 20.4326 54.4082L10.8991 54.0996C10.4221 54.4823 10.1064 54.7757 9.95183 54.9798C9.79749 55.1772 9.65033 55.4727 9.51034 55.8662C9.44382 56.0597 9.4046 56.3553 9.39267 56.753L9.01861 56.7409Z" fill="white"/>
<path d="M18.6402 24.7718L21.6197 25.9888L21.4616 26.3391C20.9174 26.168 20.5088 26.0898 20.2359 26.1043C19.7952 26.13 19.4202 26.2643 19.1108 26.5072C18.798 26.7411 18.5251 27.1162 18.2921 27.6325L17.4972 29.3934L27.0009 33.8085C27.7654 34.1636 28.2799 34.3023 28.5444 34.2244C28.9067 34.1102 29.1974 33.8103 29.4166 33.3247L29.6122 32.8914L29.9516 33.0491L27.5586 38.3502L27.2192 38.1925L27.419 37.75C27.6576 37.2214 27.6678 36.7726 27.4497 36.4036C27.315 36.1775 26.8991 35.9025 26.2019 35.5786L16.6982 31.1635L16.0198 32.6662C15.7563 33.2501 15.6118 33.6849 15.5864 33.9705C15.5584 34.3441 15.6581 34.7213 15.8857 35.1021C16.1133 35.483 16.4987 35.8256 17.0419 36.13L16.8838 36.4803L14.0332 34.9776L18.6402 24.7718Z" fill="white"/>
<path d="M23.3768 20.4897L23.0919 20.2471L26.1917 16.5101L26.4766 16.7528L26.1472 17.1498C25.8028 17.565 25.71 18.0307 25.8688 18.5469C25.9376 18.7914 26.262 19.1608 26.842 19.6549L31.0772 23.2624C32.1244 24.1544 32.8498 24.9539 33.2533 25.6608C33.6561 26.3582 33.8092 27.1928 33.7127 28.1646C33.6154 29.1269 33.1276 30.1374 32.2493 31.1962C31.2936 32.3485 30.3705 33.0547 29.4801 33.3149C28.5898 33.575 27.7076 33.5455 26.8336 33.2261C26.2389 33.0031 25.3128 32.3558 24.0551 31.2845L19.974 27.8082C19.3323 27.2616 18.836 26.9939 18.4851 27.005C18.1385 27.0109 17.7995 27.2137 17.468 27.6134L17.1387 28.0104L16.8537 27.7677L20.638 23.2055L20.9229 23.4482L20.5871 23.853C20.2255 24.289 20.1032 24.7163 20.2203 25.1349C20.2975 25.4221 20.6286 25.8149 21.2139 26.3134L25.7647 30.1898C26.1702 30.5353 26.6649 30.8947 27.2488 31.268C27.837 31.6362 28.3592 31.8463 28.8154 31.8983C29.2716 31.9503 29.7475 31.873 30.2431 31.6663C30.743 31.4544 31.2169 31.0785 31.6646 30.5387C32.2372 29.8484 32.6006 29.104 32.7549 28.3054C32.9092 27.5068 32.8372 26.8121 32.5388 26.2213C32.2395 25.621 31.5355 24.8486 30.4267 23.904L26.1992 20.3031C25.5473 19.7478 25.0789 19.4728 24.7941 19.4782C24.4003 19.4882 24.0377 19.693 23.7062 20.0927L23.3768 20.4897Z" fill="white"/>
<path d="M43.1813 23.1705L40.176 25.2623L32.763 22.609C32.4883 22.8167 32.2624 22.9821 32.0853 23.1054C32.0134 23.1555 31.9359 23.2094 31.8529 23.2672C31.7661 23.3194 31.6765 23.3735 31.5841 23.4296L33.8228 26.7268C34.3077 27.4409 34.6863 27.8305 34.9587 27.8955C35.3357 27.9946 35.7345 27.8978 36.1551 27.605L36.5951 27.2988L36.8054 27.6084L31.9819 30.9657L31.7716 30.656L32.195 30.3613C32.671 30.03 32.9053 29.6369 32.898 29.182C32.8968 28.9281 32.6765 28.4776 32.2371 27.8304L27.2598 20.4997C26.7749 19.7856 26.3963 19.396 26.1239 19.3309C25.7414 19.2356 25.3371 19.3363 24.9109 19.633L24.4875 19.9277L24.2772 19.618L28.3785 16.7635C29.574 15.9314 30.5146 15.4081 31.2003 15.1937C31.8878 14.9699 32.5891 14.9583 33.304 15.159C34.0207 15.3503 34.6006 15.7723 35.0438 16.425C35.5173 17.1224 35.7013 17.8857 35.596 18.7148C35.4962 19.5401 35.045 20.3881 34.2425 21.2589L38.7773 22.8962C39.8162 23.274 40.61 23.4527 41.1585 23.4324C41.7071 23.412 42.3113 23.2215 42.9711 22.8609L43.1813 23.1705ZM31.2262 22.9024C31.3313 22.8292 31.4246 22.7684 31.5058 22.72C31.5833 22.6661 31.647 22.6218 31.6968 22.5871C32.7705 21.8398 33.4195 21.043 33.6437 20.1969C33.8735 19.3469 33.7421 18.5592 33.2497 17.834C32.7686 17.1254 32.1571 16.7049 31.4151 16.5723C30.6748 16.4303 29.9421 16.6117 29.2171 17.1163C28.8961 17.3398 28.4976 17.6952 28.0216 18.1826L31.2262 22.9024Z" fill="white"/>
</svg>
