<svg width="34" height="35" viewBox="0 0 34 35" fill="none" xmlns="http://www.w3.org/2000/svg">
<g clip-path="url(#clip0_79_10494)">
<path fill-rule="evenodd" clip-rule="evenodd" d="M0 17.212C0 25.6551 5.98945 32.6759 13.8229 34.0996V21.834H9.67601V17.1172H13.8229V13.3428C13.8229 9.09723 16.4948 6.7395 20.274 6.7395C21.4711 6.7395 22.7621 6.92772 23.9592 7.11595V11.4564H21.8401C19.8123 11.4564 19.352 12.4937 19.352 13.8155V17.1172H23.7754L23.0386 21.834H19.352V34.0996C27.1855 32.6759 33.1749 25.6565 33.1749 17.212C33.1749 7.8193 25.7106 0.134766 16.5875 0.134766C7.46435 0.134766 0 7.8193 0 17.212Z" fill="white"/>
</g>
<defs>
<clipPath id="clip0_79_10494">
<rect width="33.1749" height="33.9648" fill="white" transform="translate(0 0.134766)"/>
</clipPath>
</defs>
</svg>
