<svg width="44" height="44" viewBox="0 0 44 44" fill="none" xmlns="http://www.w3.org/2000/svg">
<path d="M38.1585 15.4291C38.1403 14.0581 37.8836 12.7008 37.4001 11.4178C36.9807 10.3356 36.3403 9.35277 35.5196 8.53211C34.699 7.71146 33.7162 7.07101 32.634 6.65169C31.3675 6.17627 30.0295 5.9192 28.677 5.89143C26.9356 5.81359 26.3836 5.79187 21.9632 5.79187C17.5428 5.79187 16.9763 5.79187 15.2476 5.89143C13.8957 5.9194 12.5583 6.17647 11.2924 6.65169C10.2101 7.07071 9.22709 7.71106 8.40639 8.53176C7.5857 9.35245 6.94535 10.3354 6.52632 11.4178C6.04995 12.6833 5.79344 14.021 5.76787 15.3729C5.69004 17.1161 5.6665 17.6682 5.6665 22.0886C5.6665 26.5089 5.6665 27.0737 5.76787 28.8042C5.79502 30.1582 6.05025 31.494 6.52632 32.7629C6.94605 33.845 7.58687 34.8276 8.40784 35.6479C9.22882 36.4682 10.2119 37.1083 11.2942 37.5272C12.5567 38.0218 13.8943 38.2972 15.2494 38.3418C16.9925 38.4196 17.5446 38.4432 21.965 38.4432C26.3854 38.4432 26.9519 38.4432 28.6806 38.3418C30.0331 38.3152 31.3711 38.0587 32.6376 37.5833C33.7195 37.1635 34.7021 36.5229 35.5227 35.7023C36.3433 34.8817 36.9839 33.8992 37.4037 32.8172C37.8798 31.5501 38.135 30.2143 38.1621 28.8585C38.24 27.1171 38.2635 26.565 38.2635 22.1429C38.2599 17.7225 38.2599 17.1614 38.1585 15.4291ZM21.9523 30.4478C17.3292 30.4478 13.5841 26.7026 13.5841 22.0795C13.5841 17.4564 17.3292 13.7112 21.9523 13.7112C24.1717 13.7112 26.3002 14.5929 27.8696 16.1622C29.439 17.7316 30.3206 19.8601 30.3206 22.0795C30.3206 24.2989 29.439 26.4274 27.8696 27.9968C26.3002 29.5661 24.1717 30.4478 21.9523 30.4478ZM30.6537 15.353C30.3974 15.3533 30.1435 15.303 29.9067 15.205C29.6698 15.107 29.4546 14.9633 29.2733 14.782C29.0921 14.6008 28.9484 14.3856 28.8504 14.1487C28.7524 13.9119 28.7021 13.658 28.7023 13.4017C28.7023 13.1456 28.7528 12.8919 28.8508 12.6553C28.9488 12.4187 29.0925 12.2036 29.2736 12.0225C29.4547 11.8414 29.6697 11.6978 29.9064 11.5997C30.143 11.5017 30.3966 11.4513 30.6528 11.4513C30.9089 11.4513 31.1625 11.5017 31.3992 11.5997C31.6358 11.6978 31.8508 11.8414 32.0319 12.0225C32.213 12.2036 32.3567 12.4187 32.4547 12.6553C32.5527 12.8919 32.6032 13.1456 32.6032 13.4017C32.6032 14.4805 31.7307 15.353 30.6537 15.353Z" fill="white"/>
<path d="M21.9515 27.5149C24.9536 27.5149 27.3873 25.0812 27.3873 22.079C27.3873 19.0769 24.9536 16.6432 21.9515 16.6432C18.9493 16.6432 16.5156 19.0769 16.5156 22.079C16.5156 25.0812 18.9493 27.5149 21.9515 27.5149Z" fill="white"/>
</svg>
