<svg width="48" height="48" viewBox="0 0 48 48" fill="none" xmlns="http://www.w3.org/2000/svg">
<rect x="0.989746" y="0.581787" width="46.6029" height="46.6029" fill="#1775E1"/>
<path d="M20.2581 14.3996C19.9787 14.679 19.8218 15.058 19.8218 15.4531C19.8218 15.8483 19.9787 16.2273 20.2581 16.5067L27.6346 23.8833L20.2581 31.2598C19.9866 31.5408 19.8364 31.9173 19.8398 32.308C19.8432 32.6987 19.9999 33.0725 20.2762 33.3488C20.5525 33.6251 20.9263 33.7818 21.317 33.7852C21.7078 33.7886 22.0842 33.6384 22.3652 33.3669L30.7953 24.9368C31.0747 24.6574 31.2317 24.2784 31.2317 23.8833C31.2317 23.4881 31.0747 23.1091 30.7953 22.8297L22.3652 14.3996C22.0858 14.1202 21.7068 13.9633 21.3117 13.9633C20.9165 13.9633 20.5375 14.1202 20.2581 14.3996Z" fill="white"/>
</svg>
