<svg width="565" height="450" viewBox="0 0 565 450" fill="none" xmlns="http://www.w3.org/2000/svg">
<path d="M496.304 436.673L484.559 436.672L478.971 391.377L496.307 391.378L496.304 436.673Z" fill="#FFB6B6"/>
<path d="M496.718 448.924L460.599 448.922V448.466C460.599 440.703 466.893 434.411 474.657 434.41H474.658L481.256 429.406L493.566 434.411L496.719 434.411L496.718 448.924Z" fill="#2F2E41"/>
<path d="M444.232 436.673L432.486 436.672L426.899 391.377L444.234 391.378L444.232 436.673Z" fill="#FFB6B6"/>
<path d="M444.646 448.924L408.527 448.922V448.466C408.527 440.703 414.821 434.411 422.585 434.41H422.586L429.184 429.406L441.494 434.411L444.647 434.411L444.646 448.924Z" fill="#2F2E41"/>
<path d="M438.636 183.889L506.401 185.316C506.401 185.316 518.584 205.284 509.282 233.455L510.324 241.3L506.044 253.424L503.904 290.509L506.044 296.214L504.618 306.912C504.618 306.912 510.324 377.516 496.058 413.174L478.938 412.461L472.518 319.426L476.085 312.617L475.372 309.764L466.812 266.974L458.252 289.082V301.366L450.406 310.477C450.406 310.477 453.259 394.632 445.412 411.748H426.245L419.02 297.64L426.153 231.315L424.726 227.036L426.866 224.897L425.439 217.765L438.636 183.889L438.636 183.889Z" fill="#2F2E41"/>
<path d="M467.525 53.7349L488.211 48.7427L493.918 62.293C493.918 62.293 523.442 77.9828 524.869 99.378C524.869 99.378 528.87 116.494 525.304 124.339C521.737 132.184 506.758 157.145 506.758 157.145C506.758 157.145 520.311 200.649 516.744 202.788C513.177 204.928 428.292 200.649 428.292 196.37C428.292 192.091 442.42 147.161 442.42 147.161L445.412 70.1379L464.672 63.0062L467.525 53.7349L467.525 53.7349V53.7349Z" fill="#1775E1"/>
<path d="M522.673 229.293C518.344 227.112 516.602 221.835 518.784 217.506C519.003 217.07 519.262 216.668 519.54 216.286L508.029 137.383L523.965 137.893L532.301 214.772C535.323 217.334 536.325 221.711 534.463 225.405C532.282 229.733 527.003 231.474 522.673 229.293H522.673Z" fill="#FFB6B6"/>
<path d="M371.463 192.053C369.72 187.53 371.975 182.451 376.498 180.708C376.954 180.532 377.415 180.408 377.878 180.312L422.345 114.118L433.811 125.195L388.351 187.758C388.869 191.685 386.671 195.601 382.811 197.088C378.287 198.831 373.207 196.577 371.463 192.053V192.053Z" fill="#FFB6B6"/>
<path d="M493.635 117.481C489.132 102.016 496.61 86.2368 512.721 86.313C517.377 86.3351 520.995 87.686 521.998 91.4255C525.507 104.514 527.42 124.27 527.42 124.27L531.583 145.305L529.062 149.673L534.319 163.769L531.769 170.438L531.217 204.495L518.378 203.782L504.231 177.819L498.821 174.603C498.821 174.603 503.165 132.625 494.525 120.539L493.634 117.481H493.635V117.481Z" fill="#1775E1"/>
<path d="M436.123 79.42C443.631 65.1686 462.852 61.7928 474.387 73.0377C477.721 76.2879 479.384 79.7723 477.507 83.1585C470.936 95.01 455.707 107.77 455.707 107.77L436.951 137.916L432.103 139.306L426.089 153.096L413.201 168.246L396.131 177.246L386.144 167.262L388.265 154.427L413.964 120.193C413.964 120.193 432.454 96.9324 434.638 82.2379L436.123 79.42V79.42V79.42Z" fill="#1775E1"/>
<path d="M471.456 49.5668C471.928 49.6236 472.399 49.6662 472.868 49.6875C474.325 49.7675 475.766 49.6844 477.154 49.4491C481.371 48.7733 485.203 46.7761 488.159 43.8473C491.285 40.7569 493.424 36.632 494.002 31.9362C495.357 20.8519 487.462 10.755 476.376 9.40059C465.448 8.0578 455.487 15.6992 453.897 26.529C453.872 26.6966 453.846 26.8572 453.828 27.0241C452.475 38.1154 460.361 48.2061 471.456 49.5668V49.5668V49.5668Z" fill="#FFB6B6"/>
<path d="M449.338 25.7867C452.21 27.2066 456.902 22.7426 458.7 25.311C458.991 24.7559 459.314 24.2192 459.632 23.7115C459.921 23.2573 460.333 22.2877 460.81 22.1217C460.206 23.5781 460.34 25.5506 460.966 27.2406C463.799 28.2989 467.507 25.9563 470.129 23.1855C474.246 18.8408 480.969 29.9819 479.379 35.7476C481.402 33.2778 485.792 34.6708 487.28 37.4948C488.766 40.3117 486.254 42.5686 485.717 45.7107L489.772 45.1958C492.331 42.7043 492.152 38.5059 494.259 35.6182C497.779 30.7855 499.142 25.8545 496.497 20.867C494.15 16.4569 493.93 10.7494 489.625 8.2069C491.506 7.28736 484.816 8.72391 486.603 5.72721C488.398 2.73681 478.832 2.37385 478.208 3.97594C475.474 0.704931 472.716 -1.45171 469.354 1.1693C466.051 3.74796 466.393 6.45843 462.514 6.21553C460.694 6.10278 460.894 9.49558 459.812 10.9748C458.736 12.4461 454.555 13.3906 454.351 13.2331C453.247 12.3692 449.489 19.7237 449.489 19.7237C449.489 19.7237 446.443 24.3478 449.338 25.7867H449.338Z" fill="#2F2E41"/>
<path d="M196.221 154.151C264.175 154.151 319.262 209.227 319.262 277.167C319.262 345.107 264.175 400.183 196.221 400.183C128.267 400.183 34.2219 332.823 73.1799 277.167C112.138 221.511 128.267 154.151 196.221 154.151Z" fill="#F2F2F2"/>
<path d="M360.903 160.003C359.799 160.003 358.902 160.9 358.902 162.003V226.012C358.902 227.115 359.799 228.012 360.903 228.012C362.006 228.012 362.903 227.115 362.903 226.012V162.003C362.903 160.9 362.006 160.003 360.903 160.003Z" fill="#3F3D56"/>
<path d="M24.7897 111.996C23.6863 111.996 22.7891 112.893 22.7891 113.997V129.999C22.7891 131.102 23.6863 131.999 24.7897 131.999C25.8931 131.999 26.7904 131.102 26.7904 129.999V113.997C26.7904 112.893 25.8931 111.996 24.7897 111.996Z" fill="#3F3D56"/>
<path d="M24.7897 160.003C23.6863 160.003 22.7891 160.9 22.7891 162.003V193.007C22.7891 194.11 23.6863 195.008 24.7897 195.008C25.8931 195.008 26.7904 194.11 26.7904 193.007V162.003C26.7904 160.9 25.8931 160.003 24.7897 160.003Z" fill="#3F3D56"/>
<path d="M24.7897 204.009C23.6863 204.009 22.7891 204.906 22.7891 206.009V237.013C22.7891 238.116 23.6863 239.013 24.7897 239.013C25.8931 239.013 26.7904 238.116 26.7904 237.013V206.009C26.7904 204.906 25.8931 204.009 24.7897 204.009Z" fill="#3F3D56"/>
<path d="M204.224 48.9883C203.12 48.9883 202.223 49.8854 202.223 50.9885V81.9926C202.223 83.0958 203.12 83.9929 204.224 83.9929C205.327 83.9929 206.224 83.0958 206.224 81.9926V50.9885C206.224 49.8854 205.327 48.9883 204.224 48.9883Z" fill="#3F3D56"/>
<path d="M510.723 432.664C512.789 432.794 513.932 430.227 512.368 428.731L512.213 428.112C512.233 428.063 512.254 428.013 512.274 427.964C514.364 422.981 521.447 423.016 523.519 428.006C525.359 432.434 527.7 436.871 528.277 441.553C528.535 443.62 528.419 445.726 527.96 447.755C532.27 438.343 534.538 428.066 534.538 417.73C534.538 415.133 534.395 412.536 534.105 409.946C533.866 407.827 533.536 405.721 533.11 403.635C530.803 392.356 525.809 381.614 518.605 372.641C515.142 370.748 512.254 367.79 510.509 364.243C509.882 362.964 509.391 361.589 509.159 360.187C509.553 360.238 510.645 354.237 510.348 353.869C510.897 353.036 511.88 352.622 512.48 351.809C515.463 347.765 519.573 348.471 521.719 353.966C526.303 356.279 526.347 360.115 523.535 363.804C521.745 366.151 521.499 369.327 519.929 371.84C520.091 372.047 520.259 372.247 520.42 372.454C523.382 376.252 525.944 380.335 528.104 384.624C527.494 379.857 528.395 374.114 529.931 370.413C531.68 366.195 534.958 362.642 537.844 358.996C541.311 354.616 548.421 356.528 549.032 362.08C549.038 362.133 549.044 362.187 549.049 362.241C548.62 362.483 548.2 362.74 547.79 363.011C545.45 364.558 546.259 368.186 549.032 368.613L549.094 368.623C548.939 370.167 548.674 371.698 548.287 373.203C551.99 387.521 543.995 392.736 532.58 392.97C532.328 393.099 532.083 393.228 531.831 393.351C532.987 396.607 533.911 399.946 534.596 403.331C535.21 406.322 535.636 409.345 535.875 412.381C536.172 416.212 536.147 420.062 535.823 423.886L535.843 423.75C536.663 419.539 538.951 415.605 542.272 412.879C547.219 408.816 554.208 407.319 559.546 404.053C562.115 402.481 565.407 404.513 564.959 407.491L564.937 407.633C564.142 407.956 563.367 408.331 562.617 408.751C562.189 408.993 561.769 409.25 561.358 409.521C559.018 411.068 559.827 414.696 562.6 415.124L562.663 415.133C562.708 415.14 562.747 415.146 562.792 415.153C561.429 418.389 559.529 421.393 557.151 423.983C554.836 436.482 544.891 437.668 534.253 434.028H534.247C533.084 439.092 531.385 444.04 529.201 448.756H511.175C511.11 448.556 511.052 448.349 510.994 448.149C512.661 448.252 514.341 448.155 515.982 447.852C514.644 446.211 513.307 444.557 511.969 442.916C511.937 442.884 511.911 442.852 511.885 442.819C511.207 441.98 510.522 441.146 509.844 440.307L509.843 440.306C509.801 437.728 510.11 435.158 510.722 432.665L510.723 432.664L510.723 432.664H510.723Z" fill="#1775E1"/>
<path d="M0 448.81C0 449.47 0.530208 450 1.19046 450H563.669C564.329 450 564.86 449.47 564.86 448.81C564.86 448.149 564.329 447.619 563.669 447.619H1.19046C0.530208 447.619 0 448.149 0 448.81Z" fill="#383838"/>
<path d="M142.423 268.875H73.1792V266.875H142.423C148.438 266.875 153.332 261.981 153.332 255.967V209.158H155.333V255.967C155.333 263.084 149.542 268.875 142.423 268.875H142.423Z" fill="#1775E1"/>
<path d="M274.548 370.343H117.059V372.344H274.548V370.343Z" fill="#1775E1"/>
<path d="M374.469 255.5H290.348C285.809 255.5 282.116 251.808 282.116 247.269V164.192C282.116 159.653 285.809 155.961 290.348 155.961H374.469C379.008 155.961 382.701 159.653 382.701 164.192V247.269C382.701 251.808 379.008 255.5 374.469 255.5Z" fill="#E6E6E6"/>
<path d="M306.014 158.413C294.17 158.413 284.569 168.013 284.569 179.855V245.506C284.569 249.671 287.946 253.047 292.112 253.047H343.549C363.817 253.047 380.248 236.62 380.248 216.355V165.955C380.248 161.79 376.871 158.413 372.706 158.413H306.014V158.413Z" fill="white"/>
<path d="M354.939 182.556H309.703C308.84 182.556 308.138 181.854 308.138 180.991C308.138 180.128 308.84 179.427 309.703 179.427H354.939C355.802 179.427 356.504 180.128 356.504 180.991C356.504 181.854 355.802 182.556 354.939 182.556Z" fill="#E6E6E6"/>
<path d="M354.939 215.924H309.703C308.84 215.924 308.138 215.222 308.138 214.359C308.138 213.496 308.84 212.794 309.703 212.794H354.939C355.802 212.794 356.504 213.496 356.504 214.359C356.504 215.222 355.802 215.924 354.939 215.924Z" fill="#E6E6E6"/>
<path d="M373.308 199.251H291.333C290.47 199.251 289.768 198.549 289.768 197.686C289.768 196.823 290.47 196.121 291.333 196.121H373.308C374.171 196.121 374.873 196.823 374.873 197.686C374.873 198.549 374.171 199.251 373.308 199.251Z" fill="#E6E6E6"/>
<path d="M374.145 229.491H344.532C343.669 229.491 342.966 228.789 342.966 227.926C342.966 227.064 343.669 226.362 344.532 226.362H374.145C375.008 226.362 375.71 227.064 375.71 227.926C375.71 228.789 375.008 229.491 374.145 229.491Z" fill="#E6E6E6"/>
<path d="M197.778 421.026H130.981C127.376 421.026 124.443 418.094 124.443 414.49V348.521C124.443 344.917 127.376 341.985 130.981 341.985H197.778C201.382 341.985 204.315 344.917 204.315 348.521V414.49C204.315 418.094 201.382 421.026 197.778 421.026H197.778Z" fill="#E6E6E6"/>
<path d="M143.42 343.933C134.015 343.933 126.391 351.555 126.391 360.958V413.09C126.391 416.397 129.073 419.079 132.381 419.079H173.225C189.32 419.079 202.367 406.034 202.367 389.942V349.921C202.367 346.614 199.686 343.933 196.378 343.933H143.42L143.42 343.933H143.42Z" fill="white"/>
<path d="M182.269 363.103H146.349C145.664 363.103 145.106 362.546 145.106 361.861C145.106 361.176 145.664 360.618 146.349 360.618H182.269C182.954 360.618 183.512 361.176 183.512 361.861C183.512 362.546 182.954 363.103 182.269 363.103Z" fill="#E6E6E6"/>
<path d="M182.269 389.6H146.349C145.664 389.6 145.106 389.042 145.106 388.357C145.106 387.672 145.664 387.115 146.349 387.115H182.269C182.954 387.115 183.512 387.672 183.512 388.357C183.512 389.042 182.954 389.6 182.269 389.6Z" fill="#E6E6E6"/>
<path d="M196.855 376.36H131.762C131.077 376.36 130.519 375.803 130.519 375.118C130.519 374.432 131.077 373.875 131.762 373.875H196.855C197.54 373.875 198.098 374.432 198.098 375.118C198.098 375.803 197.54 376.36 196.855 376.36Z" fill="#E6E6E6"/>
<path d="M197.52 400.373H174.005C173.32 400.373 172.762 399.816 172.762 399.131C172.762 398.445 173.32 397.888 174.005 397.888H197.52C198.206 397.888 198.763 398.445 198.763 399.131C198.763 399.816 198.206 400.373 197.52 400.373Z" fill="#E6E6E6"/>
<path d="M151.091 208.653H101.692C99.0257 208.653 96.8569 206.485 96.8569 203.82V155.033C96.8569 152.368 99.0257 150.199 101.692 150.199H151.091C153.757 150.199 155.926 152.368 155.926 155.033V203.82C155.926 206.485 153.757 208.653 151.091 208.653Z" fill="#E6E6E6"/>
<path d="M110.891 151.64C103.936 151.64 98.2974 157.277 98.2974 164.231V202.785C98.2974 205.231 100.28 207.213 102.727 207.213H132.933C144.836 207.213 154.485 197.566 154.485 185.666V156.068C154.485 153.622 152.502 151.64 150.055 151.64H110.891V151.64L110.891 151.64Z" fill="white"/>
<path d="M139.621 165.817H113.057C112.55 165.817 112.138 165.404 112.138 164.898C112.138 164.391 112.55 163.979 113.057 163.979H139.621C140.128 163.979 140.54 164.391 140.54 164.898C140.54 165.404 140.128 165.817 139.621 165.817Z" fill="#E6E6E6"/>
<path d="M139.621 185.412H113.057C112.55 185.412 112.138 185 112.138 184.493C112.138 183.987 112.55 183.574 113.057 183.574H139.621C140.128 183.574 140.54 183.987 140.54 184.493C140.54 185 140.128 185.412 139.621 185.412Z" fill="#E6E6E6"/>
<path d="M150.409 175.621H102.27C101.763 175.621 101.351 175.209 101.351 174.702C101.351 174.195 101.763 173.783 102.27 173.783H150.409C150.916 173.783 151.328 174.195 151.328 174.702C151.328 175.209 150.916 175.621 150.409 175.621Z" fill="#E6E6E6"/>
<path d="M150.9 193.38H133.51C133.003 193.38 132.591 192.968 132.591 192.461C132.591 191.954 133.003 191.542 133.51 191.542H150.9C151.407 191.542 151.819 191.954 151.819 192.461C151.819 192.968 151.407 193.38 150.9 193.38Z" fill="#E6E6E6"/>
<path d="M295.254 270.166C300.779 270.166 305.258 265.688 305.258 260.165C305.258 254.641 300.779 250.163 295.254 250.163C289.73 250.163 285.251 254.641 285.251 260.165C285.251 265.688 289.73 270.166 295.254 270.166Z" fill="#1775E1"/>
<path d="M154.207 219.159C159.732 219.159 164.211 214.682 164.211 209.158C164.211 203.634 159.732 199.157 154.207 199.157C148.683 199.157 144.204 203.634 144.204 209.158C144.204 214.682 148.683 219.159 154.207 219.159Z" fill="#1775E1"/>
<path d="M202.223 356.177C207.748 356.177 212.226 351.7 212.226 346.176C212.226 340.653 207.748 336.175 202.223 336.175C196.698 336.175 192.22 340.653 192.22 346.176C192.22 351.7 196.698 356.177 202.223 356.177Z" fill="#1775E1"/>
<path d="M223.832 78.8631C230.717 78.8631 236.299 73.3999 236.299 66.6608C236.299 59.9217 230.717 54.4585 223.832 54.4585C216.946 54.4585 211.364 59.9217 211.364 66.6608C211.364 73.3999 216.946 78.8631 223.832 78.8631Z" fill="#F2F2F2"/>
<path d="M323.778 62.4866H256.671C254.369 62.4866 252.496 60.6139 252.496 58.3122C252.496 56.0104 254.369 54.1377 256.671 54.1377H323.778C326.081 54.1377 327.954 56.0104 327.954 58.3122C327.954 60.6139 326.081 62.4866 323.778 62.4866Z" fill="#F2F2F2"/>
<path d="M376.149 76.6155H256.671C254.369 76.6155 252.496 74.7428 252.496 72.4411C252.496 70.1393 254.369 68.2666 256.671 68.2666H376.149C378.452 68.2666 380.325 70.1393 380.325 72.4411C380.325 74.7428 378.452 76.6155 376.149 76.6155Z" fill="#F2F2F2"/>
<path d="M43.3739 130.148C47.8302 130.148 51.4427 126.612 51.4427 122.25C51.4427 117.889 47.8302 114.353 43.3739 114.353C38.9177 114.353 35.3052 117.889 35.3052 122.25C35.3052 126.612 38.9177 130.148 43.3739 130.148Z" fill="#F2F2F2"/>
<path d="M108.058 119.549H64.6265C63.1366 119.549 61.9243 118.337 61.9243 116.847C61.9243 115.358 63.1366 114.146 64.6265 114.146H108.058C109.547 114.146 110.76 115.358 110.76 116.847C110.76 118.337 109.547 119.549 108.058 119.549H108.058Z" fill="#F2F2F2"/>
<path d="M141.951 128.693H64.6265C63.1366 128.693 61.9243 127.481 61.9243 125.991C61.9243 124.502 63.1366 123.29 64.6265 123.29H141.951C143.441 123.29 144.653 124.502 144.653 125.991C144.653 127.481 143.441 128.693 141.951 128.693Z" fill="#F2F2F2"/>
<path d="M285.455 411.185C289.911 411.185 293.524 407.649 293.524 403.288C293.524 398.926 289.911 395.391 285.455 395.391C280.999 395.391 277.386 398.926 277.386 403.288C277.386 407.649 280.999 411.185 285.455 411.185Z" fill="#F2F2F2"/>
<path d="M350.139 400.586H306.708C305.218 400.586 304.005 399.374 304.005 397.884C304.005 396.395 305.218 395.183 306.708 395.183H350.139C351.629 395.183 352.841 396.395 352.841 397.884C352.841 399.374 351.629 400.586 350.139 400.586Z" fill="#F2F2F2"/>
<path d="M384.032 409.73H306.708C305.218 409.73 304.005 408.518 304.005 407.029C304.005 405.539 305.218 404.327 306.708 404.327H384.032C385.522 404.327 386.734 405.539 386.734 407.029C386.734 408.518 385.522 409.73 384.032 409.73Z" fill="#F2F2F2"/>
<path d="M188.469 155.991H186.468V251.004H188.469V155.991Z" fill="#E6E6E6"/>
<path d="M187.469 257.004C190.784 257.004 193.471 254.318 193.471 251.003C193.471 247.689 190.784 245.003 187.469 245.003C184.154 245.003 181.467 247.689 181.467 251.003C181.467 254.318 184.154 257.004 187.469 257.004Z" fill="#E6E6E6"/>
<path d="M278.499 326.013C281.813 326.013 284.501 323.327 284.501 320.013C284.501 316.698 281.813 314.012 278.499 314.012C275.184 314.012 272.497 316.698 272.497 320.013C272.497 323.327 275.184 326.013 278.499 326.013Z" fill="#E6E6E6"/>
<path d="M116.444 244.003C119.759 244.003 122.446 241.316 122.446 238.002C122.446 234.688 119.759 232.001 116.444 232.001C113.13 232.001 110.442 234.688 110.442 238.002C110.442 241.316 113.13 244.003 116.444 244.003Z" fill="#E6E6E6"/>
<path d="M114.227 238.011L81.4028 239.004L81.4634 241.005L114.287 240.011L114.227 238.011Z" fill="#E6E6E6"/>
<path d="M327.326 342.985H277.553V320.013H279.554V340.985H327.326V342.985Z" fill="#E6E6E6"/>
<path d="M113.981 309.526C117.295 309.526 119.983 306.84 119.983 303.526C119.983 300.212 117.295 297.525 113.981 297.525C110.666 297.525 107.979 300.212 107.979 303.526C107.979 306.84 110.666 309.526 113.981 309.526Z" fill="#E6E6E6"/>
<path d="M162.215 326.498H112.443V303.526H114.444V324.498H162.215V326.498Z" fill="#E6E6E6"/>
<path d="M314.511 280.692H75.4482V282.692H314.511V280.692Z" fill="#E6E6E6"/>
</svg>
