<svg width="61" height="61" viewBox="0 0 61 61" fill="none" xmlns="http://www.w3.org/2000/svg">
<path d="M4.32748 28.5531C4.32748 25.6922 5.46394 22.9486 7.48686 20.9257C9.50977 18.9028 12.2534 17.7663 15.1143 17.7663H24.4941C24.6113 17.7663 36.8754 17.649 48.6471 7.80024C49.1254 7.39879 49.7083 7.1421 50.3274 7.06028C50.9465 6.97847 51.5761 7.07492 52.1423 7.33833C52.7085 7.60174 53.1879 8.02117 53.5241 8.54741C53.8603 9.07365 54.0394 9.68487 54.0405 10.3093V46.7968C54.0435 47.4233 53.866 48.0373 53.5292 48.5655C53.1923 49.0936 52.7104 49.5135 52.1411 49.7749C51.7083 49.9782 51.2357 50.0824 50.7576 50.0798C49.9846 50.0802 49.2366 49.806 48.6471 49.3059C39.2438 41.4269 29.4654 39.7854 25.9011 39.4337V48.1803C25.9039 48.7221 25.7727 49.2562 25.519 49.7349C25.2653 50.2136 24.8971 50.6221 24.4472 50.9239L21.8677 52.6357C21.3204 52.9828 20.6868 53.1696 20.0387 53.1751C19.6384 53.1753 19.2413 53.1038 18.8662 52.964C18.3695 52.7791 17.9258 52.4749 17.5742 52.0783C17.2225 51.6817 16.9737 51.2047 16.8495 50.6894L14.0121 39.293C11.3565 39.0149 8.89767 37.7639 7.1095 35.7809C5.32134 33.7979 4.33035 31.2233 4.32748 28.5531ZM50.4527 47.172C50.5246 47.2296 50.6118 47.2648 50.7036 47.2731C50.7953 47.2815 50.8875 47.2626 50.9686 47.2189C51.0485 47.1819 51.1156 47.1221 51.1615 47.047C51.2074 46.9718 51.2301 46.8848 51.2265 46.7968V10.3093C51.2301 10.2214 51.2074 10.1343 51.1615 10.0592C51.1156 9.98409 51.0485 9.92425 50.9686 9.88725L50.7576 9.84035C50.7015 9.83866 50.6457 9.84816 50.5933 9.86829C50.541 9.88843 50.4932 9.91878 50.4527 9.9576C40.1584 18.587 29.6295 20.205 25.9011 20.5099V36.5963C29.6295 36.9011 40.1584 38.5191 50.4527 47.172ZM19.5931 50.0094C19.6114 50.081 19.6463 50.1472 19.695 50.2027C19.7437 50.2582 19.8048 50.3014 19.8734 50.3289C19.9419 50.3563 20.016 50.3671 20.0896 50.3605C20.1631 50.3539 20.234 50.33 20.2966 50.2908L22.8761 48.579C22.9419 48.5356 22.9958 48.4764 23.0327 48.4067C23.0695 48.337 23.0883 48.2592 23.0871 48.1803V39.3399H16.9199L19.5931 50.0094ZM15.1143 36.5259H23.0871V20.5802H15.1143C12.9997 20.5802 10.9718 21.4202 9.47662 22.9154C7.98142 24.4106 7.14143 26.4386 7.14143 28.5531C7.14143 30.6676 7.98142 32.6955 9.47662 34.1907C10.9718 35.6859 12.9997 36.5259 15.1143 36.5259Z" fill="white"/>
</svg>
