<svg width="58" height="58" viewBox="0 0 58 58" fill="none" xmlns="http://www.w3.org/2000/svg">
<g clip-path="url(#clip0_79_10526)">
<path d="M8.85156 12.0519H12.0111V15.2114H8.85156V12.0519Z" fill="white"/>
<path d="M15.1689 12.0519H18.3285V15.2114H15.1689V12.0519Z" fill="white"/>
<path d="M21.4878 12.0519H24.6473V15.2114H21.4878V12.0519Z" fill="white"/>
<path d="M51.5051 7.31238H7.27182C6.43387 7.31238 5.63023 7.64525 5.03771 8.23778C4.44518 8.8303 4.1123 9.63394 4.1123 10.4719V48.3861C4.1123 49.224 4.44518 50.0277 5.03771 50.6202C5.63023 51.2127 6.43387 51.5456 7.27182 51.5456H51.5051C52.343 51.5456 53.1466 51.2127 53.7392 50.6202C54.3317 50.0277 54.6646 49.224 54.6646 48.3861V10.4719C54.6646 9.63394 54.3317 8.8303 53.7392 8.23778C53.1466 7.64525 52.343 7.31238 51.5051 7.31238ZM7.27182 10.4719H51.5051V17.1069H7.27182V10.4719ZM7.27182 48.3861V19.6345H51.5051V48.3861H7.27182Z" fill="white"/>
</g>
<defs>
<clipPath id="clip0_79_10526">
<rect width="56.8713" height="56.8713" fill="white" transform="translate(0.950195 0.993408)"/>
</clipPath>
</defs>
</svg>
