<svg width="56" height="57" viewBox="0 0 56 57" fill="none" xmlns="http://www.w3.org/2000/svg">
<path d="M26.5486 14.6057H30.0043V24.9728H26.5486V14.6057ZM26.5486 31.8843H30.0043V42.2514H26.5486V31.8843ZM31.7322 26.7007H42.0993V30.1564H31.7322V26.7007ZM14.4536 26.7007H24.8207V30.1564H14.4536V26.7007ZM7.54215 18.0614H4.08643V7.69425C4.08734 6.77801 4.45172 5.89957 5.09959 5.25169C5.74747 4.60382 6.62591 4.23944 7.54215 4.23853H17.9093V7.69425H7.54215V18.0614ZM17.9093 52.6186H7.54215C6.62591 52.6177 5.74747 52.2533 5.09959 51.6054C4.45172 50.9576 4.08734 50.0791 4.08643 49.1629V38.7957H7.54215V49.1629H17.9093V52.6186ZM49.0108 52.6186H38.6436V49.1629H49.0108V38.7957H52.4665V49.1629C52.4656 50.0791 52.1012 50.9576 51.4533 51.6054C50.8055 52.2533 49.927 52.6177 49.0108 52.6186ZM52.4665 18.0614H49.0108V7.69425H38.6436V4.23853H49.0108C49.927 4.23944 50.8055 4.60382 51.4533 5.25169C52.1012 5.89957 52.4656 6.77801 52.4665 7.69425V18.0614Z" fill="white"/>
</svg>
